#N canvas 313 165 266 409 10;
#X obj 53 45 inlet;
#X obj 129 45 inlet;
#X obj 129 67 list length;
#X obj 111 177 mod;
#X obj 53 375 outlet;
#X obj 111 199 t b f;
#X obj 111 221 list;
#X obj 111 243 list split;
#X obj 111 287 list;
#X obj 111 265 list split 1;
#X obj 53 199 sel;
#X obj 111 309 t l;
#X obj 53 331 list;
#X obj 53 177 div;
#X obj 53 133 spigot;
#X obj 53 155 t f f;
#X obj 53 111 t f b;
#X obj 53 67 i;
#X obj 53 89 moses;
#X obj 53 353 list trim;
#X connect 0 0 17 0;
#X connect 1 0 2 0;
#X connect 1 0 6 1;
#X connect 2 0 3 1;
#X connect 2 0 13 1;
#X connect 2 0 14 1;
#X connect 3 0 5 0;
#X connect 5 0 6 0;
#X connect 5 1 7 1;
#X connect 6 0 7 0;
#X connect 7 1 9 0;
#X connect 8 0 11 0;
#X connect 9 0 8 0;
#X connect 10 0 12 0;
#X connect 10 1 15 0;
#X connect 11 0 8 1;
#X connect 11 0 12 1;
#X connect 12 0 19 0;
#X connect 13 0 10 0;
#X connect 14 0 15 0;
#X connect 15 0 13 0;
#X connect 15 1 3 0;
#X connect 16 0 14 0;
#X connect 16 1 8 1;
#X connect 17 0 18 0;
#X connect 18 1 16 0;
#X connect 19 0 4 0;
