#N canvas 43 4 1920 1016 12;
#X obj 1013 57 inlet;
#X obj 303 879 outlet~;
#X obj 1013 136 unpack;
#X obj 767 455 baseconverter;
#X msg 855 414 0 1;
#X obj 777 487 list length;
#X floatatom 777 527 5 0 0 0 - - - 0;
#X msg 724 521 8;
#X obj 724 545 -;
#X floatatom 784 429 5 0 0 0 - - - 0;
#X listbox 767 776 20 0 0 0 - - - 0;
#X obj 767 799 list prepend;
#X floatatom 724 569 5 0 0 0 - - - 0;
#X msg 874 548 const \$1;
#X floatatom 874 495 5 0 0 0 - - - 0;
#X msg 724 610 0 \$1;
#X listbox 724 706 20 0 0 0 - - - 0;
#X obj 874 456 loadbang;
#X obj 874 572 array define zeroes_A 10000;
#X obj 724 634 array get zeroes_A;
#X msg 767 838 \; bassPattern 0 \$1 \$2 \$3 \$4 \$5 \$6 \$7 \$8;
#N canvas 76 76 1190 590 (subpatch) 0;
#X array bassPattern 16 float 3;
#A 0 1 1 1 1 1 1 1 1 1 1 1 1 1 1 1 1;
#X coords 0 1 16 -1 200 140 1;
#X restore 949 304 graph;
#X obj 1159 459 baseconverter;
#X msg 1247 418 0 1;
#X obj 1169 491 list length;
#X floatatom 1169 531 5 0 0 0 - - - 0;
#X msg 1116 525 8;
#X obj 1116 549 -;
#X floatatom 1176 433 5 0 0 0 - - - 0;
#X listbox 1159 780 20 0 0 0 - - - 0;
#X obj 1159 803 list prepend;
#X floatatom 1116 573 5 0 0 0 - - - 0;
#X msg 1116 614 0 \$1;
#X listbox 1116 710 20 0 0 0 - - - 0;
#X msg 1266 551 const \$1;
#X floatatom 1266 498 5 0 0 0 - - - 0;
#X obj 1266 459 loadbang;
#X obj 1266 575 array define zeroes_B 10000;
#X obj 1116 638 array get zeroes_B;
#X msg 1159 842 \; bassPattern 8 \$1 \$2 \$3 \$4 \$5 \$6 \$7 \$8;
#X obj 1247 393 loadbang;
#X obj 855 391 loadbang;
#X text 1309 667 Decimal to binary 8 -15;
#X text 870 636 Decimal to binary 0- 7;
#X obj 558 181 route vol;
#N canvas 0 50 450 250 (subpatch) 0;
#X array bassRiff 8 float 3;
#A 0 24 7 3 4 3 12 3 4;
#X coords 0 0 8 12 200 140 1 0 0;
#X restore 1471 97 graph;
#X msg 1379 251 \; bassRiff 0 \$1 \$2 \$3 \$4 \$5 \$6 \$7 \$8;
#X obj 557 232 route riffmod;
#X obj 561 282 route pattmod;
#X obj 185 372 mtof;
#X obj 302 741 *~;
#X obj 309 60 r clock;
#X obj 309 84 f;
#X obj 339 84 + 1;
#X floatatom 309 108 5 0 0 0 - - - 0;
#X obj 309 131 mod 16;
#X obj 309 158 tabread bassPattern;
#X floatatom 309 182 5 0 0 0 - - - 0;
#X obj 309 205 sel 1;
#X obj 185 132 mod 8;
#X obj 185 156 tabread bassRiff;
#X floatatom 185 180 5 0 0 0 - - - 0;
#X obj 486 601 vline~;
#X obj 1013 112 route patt;
#N canvas 0 50 450 250 (subpatch) 0;
#X array bassAR 2 float 3;
#A 0 1 180;
#X coords 0 0 2 500 200 140 1 0 0;
#X restore 1669 393 graph;
#X obj 1571 390 route attack;
#X msg 1571 421 \; bassAR 0 \$1;
#X obj 1570 467 route decay;
#X msg 1570 498 \; bassAR 1 \$1;
#X msg 1670 572 \; bassAR 0 5;
#X obj 1670 544 loadbang;
#X obj 1772 543 loadbang;
#X msg 1772 571 \; bassAR 1 200;
#X obj 575 383 del;
#X floatatom 477 491 5 0 0 0 - - - 0;
#X obj 477 467 tabread bassAR;
#X msg 477 429 0;
#X floatatom 589 492 5 0 0 0 - - - 0;
#X obj 589 468 tabread bassAR;
#X msg 589 430 1;
#X msg 471 568 1 \$1;
#X msg 524 566 0 \$1;
#X obj 1264 91 route randriff;
#X obj 1264 115 random 12;
#X obj 492 677 route lp;
#X obj 1379 158 route notes;
#X obj 302 841 *~;
#X obj 245 465 / 100;
#X floatatom 245 440 4 0 100 0 - - - 0;
#X obj 295 465 / 100;
#X floatatom 295 440 4 0 100 0 - - - 0;
#X obj 185 465 phasor~;
#X floatatom 185 444 5 0 0 0 - - - 0;
#X obj 227 495 *~;
#X obj 185 509 *~ -1;
#X obj 185 534 +~ 1;
#X obj 325 582 *~;
#X obj 300 609 min~;
#X text 248 420 up;
#X text 295 420 down;
#X obj 301 638 expr~ ($v1*2) - 0.5;
#X obj 245 325 loadbang;
#X msg 245 349 80;
#X msg 755 907 \; bassPattern 0 0 0 0 0 0 0 0 0 0 0 0 0 0 0 0 0;
#X obj 755 884 loadbang;
#X obj 102 378 mtof;
#X floatatom 102 450 5 0 0 0 - - - 0;
#X obj 101 261 + 36;
#X obj 184 255 + 24;
#X obj 301 662 +~;
#X obj 102 497 clip~ -0.1 0.1;
#X obj 128 328 +;
#X obj 566 109 route pitch;
#X floatatom 566 133 5 0 0 0 - - - 0;
#X obj 184 279 +;
#X obj 493 703 route hp;
#X obj 302 789 hip~ 0;
#X obj 302 765 lop~ 20000;
#X obj 302 813 *~ 1.6;
#X obj 102 521 hip~ 1000;
#X obj 102 474 osc~;
#X obj 102 545 *~ 0.2;
#X obj 486 625 pow~ 1;
#X obj 694 353 route pow;
#X connect 0 0 44 0;
#X connect 0 0 47 0;
#X connect 0 0 48 0;
#X connect 0 0 63 0;
#X connect 0 0 65 0;
#X connect 0 0 67 0;
#X connect 0 0 84 0;
#X connect 0 0 85 0;
#X connect 0 0 112 0;
#X connect 0 0 123 0;
#X connect 2 0 9 0;
#X connect 2 1 28 0;
#X connect 3 0 5 0;
#X connect 3 0 7 0;
#X connect 3 0 10 0;
#X connect 4 0 3 1;
#X connect 5 0 6 0;
#X connect 6 0 8 1;
#X connect 7 0 8 0;
#X connect 8 0 12 0;
#X connect 9 0 3 0;
#X connect 10 0 11 0;
#X connect 11 0 20 0;
#X connect 12 0 15 0;
#X connect 13 0 18 0;
#X connect 14 0 13 0;
#X connect 15 0 19 0;
#X connect 16 0 11 1;
#X connect 17 0 14 0;
#X connect 19 0 16 0;
#X connect 22 0 24 0;
#X connect 22 0 26 0;
#X connect 22 0 29 0;
#X connect 23 0 22 1;
#X connect 24 0 25 0;
#X connect 25 0 27 1;
#X connect 26 0 27 0;
#X connect 27 0 31 0;
#X connect 28 0 22 0;
#X connect 29 0 30 0;
#X connect 30 0 39 0;
#X connect 31 0 32 0;
#X connect 32 0 38 0;
#X connect 33 0 30 1;
#X connect 34 0 37 0;
#X connect 35 0 34 0;
#X connect 36 0 35 0;
#X connect 38 0 33 0;
#X connect 40 0 23 0;
#X connect 41 0 4 0;
#X connect 44 0 86 1;
#X connect 47 0 59 1;
#X connect 48 0 55 1;
#X connect 49 0 92 0;
#X connect 50 0 117 0;
#X connect 51 0 52 0;
#X connect 52 0 53 0;
#X connect 52 0 54 0;
#X connect 53 0 52 1;
#X connect 54 0 55 0;
#X connect 54 0 59 0;
#X connect 55 0 56 0;
#X connect 56 0 57 0;
#X connect 57 0 58 0;
#X connect 58 0 73 0;
#X connect 58 0 76 0;
#X connect 59 0 60 0;
#X connect 60 0 61 0;
#X connect 61 0 73 0;
#X connect 61 0 108 0;
#X connect 61 0 107 0;
#X connect 62 0 122 0;
#X connect 63 0 2 0;
#X connect 65 0 66 0;
#X connect 67 0 68 0;
#X connect 70 0 69 0;
#X connect 71 0 72 0;
#X connect 73 0 79 0;
#X connect 74 0 80 0;
#X connect 74 0 73 1;
#X connect 75 0 74 0;
#X connect 76 0 75 0;
#X connect 77 0 81 0;
#X connect 78 0 77 0;
#X connect 79 0 78 0;
#X connect 80 0 62 0;
#X connect 81 0 62 0;
#X connect 82 0 83 0;
#X connect 84 0 117 1;
#X connect 85 0 46 0;
#X connect 86 0 1 0;
#X connect 87 0 93 1;
#X connect 88 0 87 0;
#X connect 89 0 96 1;
#X connect 90 0 89 0;
#X connect 91 0 93 0;
#X connect 91 0 94 0;
#X connect 92 0 91 0;
#X connect 93 0 97 0;
#X connect 94 0 95 0;
#X connect 95 0 96 0;
#X connect 96 0 97 1;
#X connect 97 0 100 0;
#X connect 100 0 109 0;
#X connect 101 0 102 0;
#X connect 102 0 88 0;
#X connect 102 0 90 0;
#X connect 104 0 103 0;
#X connect 105 0 106 0;
#X connect 106 0 120 0;
#X connect 107 0 111 0;
#X connect 108 0 114 0;
#X connect 109 0 50 0;
#X connect 110 0 119 0;
#X connect 111 0 105 0;
#X connect 112 0 113 0;
#X connect 113 0 111 1;
#X connect 113 0 114 1;
#X connect 114 0 49 0;
#X connect 116 0 118 0;
#X connect 117 0 116 0;
#X connect 118 0 86 0;
#X connect 119 0 121 0;
#X connect 120 0 110 0;
#X connect 121 0 109 1;
#X connect 122 0 50 1;
#X connect 123 0 122 1;
