#N canvas 152 152 1920 1016 12;
#X obj 943 258 f;
#X obj 980 259 + 1;
#X obj 943 286 mod 1;
#X obj 943 310 sel 0;
#X obj 943 334 f;
#X obj 981 334 + 1;
#N canvas 0 50 450 250 (subpatch) 0;
#X array bassRiff 8 float 3;
#A 0 0 0 3 4 10 12 3 4;
#X coords 0 0 8 12 200 140 1 0 0;
#X restore 1303 137 graph;
#X msg 1211 291 \; bassRiff 0 \$1 \$2 \$3 \$4 \$5 \$6 \$7 \$8;
#N canvas 76 76 1190 590 (subpatch) 0;
#X array bassPattern 16 float 3;
#A 0 1 0 0 0 0 0 0 0 1 1 1 1 1 1 1 1;
#X coords 0 1 16 -1 200 140 1;
#X restore 1516 136 graph;
#X obj 783 128 inlet;
#X obj 783 207 route space;
#X obj 943 358 mod 8;
#X msg 1211 374 \; bassRiff 0 0 2 3 5 7 9 10 12;
#X obj 1211 339 loadbang;
#X obj 306 35 route pattern;
#X obj 782 276 route riffmod;
#X obj 1211 198 route riff;
#X obj 89 191 baseconverter;
#X msg 177 150 0 1;
#X obj 99 223 list length;
#X floatatom 99 263 5 0 0 0 - - - 0;
#X msg 46 257 8;
#X obj 46 281 -;
#X floatatom 106 165 5 0 0 0 - - - 0;
#X listbox 89 512 20 0 0 0 - - - 0;
#X obj 89 535 list prepend;
#X floatatom 46 305 5 0 0 0 - - - 0;
#X msg 46 346 0 \$1;
#X listbox 46 442 20 0 0 0 - - - 0;
#X obj 46 370 array get zeroes_A;
#X msg 89 574 \; bassPattern 0 \$1 \$2 \$3 \$4 \$5 \$6 \$7 \$8;
#X msg 1517 316 \; bassPattern 0 0 0 0 0 0 0 0 0 0 0 0 0 0 0 0 0;
#X obj 1517 293 loadbang;
#X obj 177 117 loadbang;
#X obj 376 188 baseconverter;
#X msg 464 147 0 1;
#X obj 386 220 list length;
#X floatatom 386 260 5 0 0 0 - - - 0;
#X msg 333 254 8;
#X obj 333 278 -;
#X floatatom 393 162 5 0 0 0 - - - 0;
#X listbox 376 509 20 0 0 0 - - - 0;
#X obj 376 532 list prepend;
#X floatatom 333 302 5 0 0 0 - - - 0;
#X msg 333 343 0 \$1;
#X listbox 333 439 20 0 0 0 - - - 0;
#X msg 483 280 const \$1;
#X floatatom 483 227 5 0 0 0 - - - 0;
#X obj 483 188 loadbang;
#X obj 483 304 array define zeroes_B 10000;
#X obj 333 367 array get zeroes_B;
#X msg 376 571 \; bassPattern 8 \$1 \$2 \$3 \$4 \$5 \$6 \$7 \$8;
#X obj 464 122 loadbang;
#X obj 306 59 unpack;
#X obj 943 382 tabread bassRiff;
#X obj 943 478 mtof;
#X obj 942 563 *~;
#X obj 717 411 route vol;
#X obj 1001 502 loadbang;
#X msg 1001 526 0;
#X obj 942 665 outlet~;
#X floatatom 1076 272 5 0 0 0 - - - 0;
#X floatatom 1050 222 5 0 0 0 - - - 0;
#X obj 943 231 r clock;
#X msg 1051 538 1;
#X floatatom 943 457 5 0 0 0 - - - 0;
#N canvas 0 50 450 250 (subpatch) 0;
#X array bassAR 2 float 3;
#A 0 5 500;
#X coords 0 0 2 500 200 140 1 0 0;
#X restore 1465 741 graph;
#X obj 1367 738 route attack;
#X msg 1367 769 \; bassAR 0 \$1;
#X obj 1366 815 route decay;
#X msg 1366 846 \; bassAR 1 \$1;
#X msg 1466 920 \; bassAR 0 5;
#X obj 1466 892 loadbang;
#X obj 1568 891 loadbang;
#X msg 1568 919 \; bassAR 1 200;
#X obj 801 637 mod 16;
#X obj 801 664 tabread bassPattern;
#X floatatom 801 688 5 0 0 0 - - - 0;
#X obj 801 711 sel 1;
#X obj 842 938 vline~;
#X obj 931 720 del;
#X floatatom 833 828 5 0 0 0 - - - 0;
#X obj 833 804 tabread bassAR;
#X msg 833 766 0;
#X floatatom 945 829 5 0 0 0 - - - 0;
#X obj 945 805 tabread bassAR;
#X msg 945 767 1;
#X msg 827 905 1 \$1;
#X msg 880 903 0 \$1;
#X obj 842 962 pow~ 1;
#X obj 942 611 *~;
#X obj 713 562 route patternmod;
#X obj 943 406 + 24;
#X obj 827 383 route pitch;
#X obj 943 430 + 0;
#X obj 943 504 osc~;
#X obj 943 528 clip~ -0.5 0.5;
#X obj 942 587 lop~ 20000;
#X obj 1065 586 route lp;
#X obj 943 639 *~ 1.3;
#X obj 701 688 route pow;
#X connect 0 0 1 0;
#X connect 0 0 2 0;
#X connect 0 0 62 0;
#X connect 0 0 75 0;
#X connect 1 0 0 1;
#X connect 2 0 3 0;
#X connect 3 0 4 0;
#X connect 4 0 5 0;
#X connect 4 0 11 0;
#X connect 5 0 4 1;
#X connect 9 0 10 0;
#X connect 9 0 14 0;
#X connect 9 0 15 0;
#X connect 9 0 16 0;
#X connect 9 0 57 0;
#X connect 9 0 67 0;
#X connect 9 0 69 0;
#X connect 9 0 91 0;
#X connect 9 0 93 0;
#X connect 9 0 98 0;
#X connect 9 0 100 0;
#X connect 10 0 2 1;
#X connect 11 0 54 0;
#X connect 11 0 61 0;
#X connect 13 0 12 0;
#X connect 14 0 53 0;
#X connect 15 0 11 1;
#X connect 16 0 7 0;
#X connect 17 0 19 0;
#X connect 17 0 21 0;
#X connect 17 0 24 0;
#X connect 18 0 17 1;
#X connect 19 0 20 0;
#X connect 20 0 22 1;
#X connect 21 0 22 0;
#X connect 22 0 26 0;
#X connect 23 0 17 0;
#X connect 24 0 25 0;
#X connect 25 0 30 0;
#X connect 26 0 27 0;
#X connect 27 0 29 0;
#X connect 28 0 25 1;
#X connect 29 0 28 0;
#X connect 32 0 31 0;
#X connect 33 0 18 0;
#X connect 34 0 36 0;
#X connect 34 0 38 0;
#X connect 34 0 41 0;
#X connect 35 0 34 1;
#X connect 36 0 37 0;
#X connect 37 0 39 1;
#X connect 38 0 39 0;
#X connect 39 0 43 0;
#X connect 40 0 34 0;
#X connect 41 0 42 0;
#X connect 42 0 51 0;
#X connect 43 0 44 0;
#X connect 44 0 50 0;
#X connect 45 0 42 1;
#X connect 46 0 49 0;
#X connect 47 0 46 0;
#X connect 48 0 47 0;
#X connect 50 0 45 0;
#X connect 52 0 35 0;
#X connect 53 0 23 0;
#X connect 53 1 40 0;
#X connect 54 0 92 0;
#X connect 55 0 95 0;
#X connect 56 0 97 0;
#X connect 57 0 56 1;
#X connect 58 0 59 0;
#X connect 59 0 56 1;
#X connect 63 0 0 0;
#X connect 64 0 56 1;
#X connect 65 0 55 0;
#X connect 67 0 68 0;
#X connect 69 0 70 0;
#X connect 72 0 71 0;
#X connect 73 0 74 0;
#X connect 75 0 76 0;
#X connect 76 0 77 0;
#X connect 77 0 78 0;
#X connect 78 0 80 0;
#X connect 78 0 83 0;
#X connect 79 0 89 0;
#X connect 80 0 86 0;
#X connect 81 0 87 0;
#X connect 81 0 80 1;
#X connect 82 0 81 0;
#X connect 83 0 82 0;
#X connect 84 0 88 0;
#X connect 85 0 84 0;
#X connect 86 0 85 0;
#X connect 87 0 79 0;
#X connect 88 0 79 0;
#X connect 89 0 90 1;
#X connect 90 0 99 0;
#X connect 91 0 75 1;
#X connect 92 0 94 0;
#X connect 93 0 94 1;
#X connect 94 0 65 0;
#X connect 95 0 96 0;
#X connect 96 0 56 0;
#X connect 97 0 90 0;
#X connect 98 0 97 1;
#X connect 99 0 60 0;
#X connect 100 0 89 1;
