#N canvas 228 228 1920 1016 12;
#X obj 164 24 inlet;
#X msg 61 204 start;
#X obj 61 180 del 1;
#X obj 122 225 readsf~;
#X obj 121 571 outlet~;
#X obj 122 249 *~ 0;
#X obj 167 250 route vol;
#X obj 583 46 r clock;
#X obj 583 94 + 0;
#X obj 583 70 % 16;
#X obj 583 118 *;
#X floatatom 633 71 5 0 0 0 - - - 0;
#X obj 583 185 <;
#X obj 581 254 bng 15 250 50 0 empty empty empty 17 7 0 10 #fcfcfc
#000000 #000000;
#X obj 583 142 % 16;
#X obj 583 223 select 1;
#X obj 400 133 route mod;
#X obj 122 357 *~;
#X floatatom 363 302 5 0 0 0 - - - 0;
#X obj 363 325 expr pow(2 \, $f1) -1;
#X floatatom 363 349 5 0 0 0 - - - 0;
#X obj 363 372 expr 1 / $f1;
#X floatatom 363 396 5 0 0 0 - - - 0;
#X obj 122 333 expr~ round($v1/$f2);
#X msg 425 276 16;
#X obj 429 244 loadbang;
#X obj 264 153 route bit;
#X obj 339 75 route offset;
#X obj 34 43 route sample;
#X obj 12 280 loadbang;
#X obj 239 274 bng 15 250 50 0 empty empty empty 17 7 0 10 #fcfcfc
#000000 #000000;
#X obj 34 130 symbol;
#X obj 12 369 symbol;
#X msg 11 470 open ./\$1.wav;
#X msg 12 322 samples/clap;
#X obj 339 43 route euc;
#X connect 0 0 6 0;
#X connect 0 0 16 0;
#X connect 0 0 26 0;
#X connect 0 0 27 0;
#X connect 0 0 28 0;
#X connect 0 0 35 0;
#X connect 1 0 3 0;
#X connect 2 0 1 0;
#X connect 3 0 5 0;
#X connect 5 0 23 0;
#X connect 6 0 5 1;
#X connect 7 0 9 0;
#X connect 8 0 10 0;
#X connect 9 0 8 0;
#X connect 10 0 14 0;
#X connect 11 0 10 1;
#X connect 11 0 12 1;
#X connect 12 0 15 0;
#X connect 13 0 2 0;
#X connect 13 0 30 0;
#X connect 14 0 12 0;
#X connect 15 0 13 0;
#X connect 16 0 14 1;
#X connect 17 0 4 0;
#X connect 18 0 19 0;
#X connect 19 0 20 0;
#X connect 20 0 21 0;
#X connect 21 0 22 0;
#X connect 22 0 23 1;
#X connect 22 0 17 1;
#X connect 23 0 17 0;
#X connect 24 0 18 0;
#X connect 25 0 24 0;
#X connect 26 0 18 0;
#X connect 27 0 8 1;
#X connect 28 0 31 0;
#X connect 29 0 34 0;
#X connect 30 0 32 0;
#X connect 31 0 32 0;
#X connect 32 0 33 0;
#X connect 33 0 3 0;
#X connect 34 0 32 0;
#X connect 35 0 11 0;
