#N canvas -10 22 1920 1016 12;
#N canvas 0 50 450 250 (subpatch) 0;
#X array hhcArray 8 float 3;
#A 0 0 0 1 0 0 0 1 0;
#X coords 0 0 8 1 200 140 1 0 0;
#X restore 231 163 graph;
#X msg 457 202 \; hhcArray 0 0 0 0 0 0 0 0 0;
#X obj 457 167 loadbang;
#X msg 699 178 list \$1 \$2 \$3 \$4 \$5 \$6 \$7 \$8;
#X msg 699 202 \; hhcArray 0 \$1 \$2 \$3 \$4 \$5 \$6 \$7 \$8;
#X obj 699 114 inlet;
#X obj 861 393 r clock;
#X obj 861 417 mod 8;
#X obj 861 519 tabread hhcArray;
#X floatatom 861 543 5 0 0 0 - - - 0;
#X obj 861 566 sel 1;
#X obj 859 678 readsf~;
#X obj 1054 654 del 1;
#X msg 1054 678 start;
#X obj 885 601 bng 15 250 50 0 empty empty empty 17 7 0 10 #fcfcfc
#000000 #000000;
#X floatatom 861 441 5 0 0 0 - - - 0;
#X obj 1187 496 route vol;
#X obj 859 702 *~ 0;
#X obj 859 828 outlet~;
#X obj 1250 590 route del;
#X floatatom 1248 680 5 0 0 0 - - - 0;
#X obj 861 799 delread~ hhc_del;
#X obj 859 726 delwrite~ hhc_del 5000;
#X obj 1194 754 loadbang;
#X msg 1194 778 0;
#X obj 499 293 route all;
#X msg 498 376 \; hhcArray 0 1 1 1 1 1 1 1 1;
#X obj 508 336 bng 15 250 50 0 empty empty empty 17 7 0 10 #fcfcfc
#000000 #000000;
#X obj 616 302 route none;
#X obj 664 348 bng 15 250 50 0 empty empty empty 17 7 0 10 #fcfcfc
#000000 #000000;
#X obj 699 138 route bin;
#X obj 861 464 + 0;
#X obj 750 463 route offset;
#X obj 638 556 route mod;
#X obj 577 606 route sample;
#X obj 405 559 loadbang;
#X obj 555 651 symbol;
#X obj 397 660 symbol;
#X msg 394 762 open ./\$1.wav;
#X msg 397 613 samples/hhc;
#X connect 2 0 1 0;
#X connect 3 0 4 0;
#X connect 5 0 16 0;
#X connect 5 0 19 0;
#X connect 5 0 25 0;
#X connect 5 0 28 0;
#X connect 5 0 30 0;
#X connect 5 0 32 0;
#X connect 5 0 33 0;
#X connect 5 0 34 0;
#X connect 6 0 7 0;
#X connect 7 0 15 0;
#X connect 8 0 9 0;
#X connect 9 0 10 0;
#X connect 10 0 14 0;
#X connect 11 0 17 0;
#X connect 12 0 13 0;
#X connect 13 0 11 0;
#X connect 14 0 12 0;
#X connect 14 0 37 0;
#X connect 15 0 31 0;
#X connect 16 0 17 1;
#X connect 17 0 22 0;
#X connect 19 0 20 0;
#X connect 20 0 21 0;
#X connect 20 0 22 0;
#X connect 21 0 18 0;
#X connect 23 0 24 0;
#X connect 24 0 21 0;
#X connect 25 0 27 0;
#X connect 27 0 26 0;
#X connect 28 0 29 0;
#X connect 29 0 1 0;
#X connect 30 0 3 0;
#X connect 31 0 8 0;
#X connect 32 0 31 1;
#X connect 33 0 7 1;
#X connect 34 0 36 0;
#X connect 35 0 39 0;
#X connect 36 0 37 0;
#X connect 37 0 38 0;
#X connect 38 0 11 0;
#X connect 39 0 37 0;
