#N canvas 228 228 757 445 12;
#X obj 293 13 inlet;
#X obj 168 27 r clock;
#X obj 197 231 readsf~;
#X obj 387 164 del 1;
#X msg 388 189 start;
#X obj 197 98 mod 32;
#X obj 236 54 route mod;
#X floatatom 168 51 5 0 0 0 - - - 0;
#X obj 197 122 sel 0;
#X obj 312 55 route play;
#X obj 293 244 route hp;
#X obj 197 263 hip~ 0;
#X obj 197 360 outlet~;
#X floatatom 235 75 5 0 0 0 - - - 0;
#X obj 197 287 *~ 0;
#X obj 521 240 route vol;
#X floatatom 521 264 5 0 0 0 - - - 0;
#X msg 197 169 open samples/hho.wav;
#X connect 0 0 6 0;
#X connect 0 0 9 0;
#X connect 0 0 10 0;
#X connect 0 0 15 0;
#X connect 1 0 7 0;
#X connect 2 0 11 0;
#X connect 3 0 4 0;
#X connect 4 0 2 0;
#X connect 5 0 8 0;
#X connect 6 0 13 0;
#X connect 7 0 5 0;
#X connect 8 0 17 0;
#X connect 8 0 3 0;
#X connect 9 0 8 1;
#X connect 10 0 11 1;
#X connect 11 0 14 0;
#X connect 13 0 5 1;
#X connect 14 0 12 0;
#X connect 15 0 16 0;
#X connect 16 0 14 1;
#X connect 17 0 2 0;
