#N canvas -10 2 1916 1002 12;
#X obj 220 325 kick;
#X obj 143 147 tempo;
#X obj 143 183 s clock;
#X obj 780 758 dac~;
#X obj 220 349 s~ kickAudio;
#X obj 143 74 netreceive -u 6000;
#X obj 506 547 r~ kickAudio;
#X obj 258 299 snare;
#X obj 258 323 s~ snareAudio;
#X obj 776 547 r~ snareAudio;
#X obj 335 214 hho;
#X obj 335 238 s~ hhoAudio;
#X obj 599 547 r~ hhoAudio;
#X obj 297 249 hhc;
#X obj 297 273 s~ hhcAudio;
#X obj 688 547 r~ hhcAudio;
#X obj 374 175 clap;
#X obj 374 211 s~ clapAudio;
#X obj 884 547 r~ clapAudio;
#X obj 63 74 loadbang;
#X msg 63 98 \; pd dsp 1;
#X obj 412 162 s~ bassAudio;
#X obj 979 547 r~ bassAudio;
#X obj 688 580 *~ 0.5;
#X obj 599 579 *~ 0.5;
#X obj 143 98 route start bpm kick snare hhc cym clap bass synth;
#X obj 451 277 s~ synthAudio;
#X obj 1076 547 r~ synthAudio;
#X obj 412 138 bass1;
#X obj 451 253 synth2;
#X connect 0 0 4 0;
#X connect 1 0 2 0;
#X connect 5 0 25 0;
#X connect 6 0 3 0;
#X connect 6 0 3 1;
#X connect 7 0 8 0;
#X connect 9 0 3 0;
#X connect 9 0 3 1;
#X connect 10 0 11 0;
#X connect 12 0 24 0;
#X connect 12 0 3 1;
#X connect 13 0 14 0;
#X connect 15 0 3 0;
#X connect 15 0 23 0;
#X connect 16 0 17 0;
#X connect 18 0 3 0;
#X connect 18 0 3 1;
#X connect 19 0 20 0;
#X connect 22 0 3 0;
#X connect 22 0 3 1;
#X connect 23 0 3 1;
#X connect 24 0 3 0;
#X connect 25 0 1 0;
#X connect 25 1 1 1;
#X connect 25 2 0 0;
#X connect 25 3 7 0;
#X connect 25 4 13 0;
#X connect 25 5 10 0;
#X connect 25 6 16 0;
#X connect 25 7 28 0;
#X connect 25 8 29 0;
#X connect 27 0 3 1;
#X connect 27 0 3 0;
#X connect 28 0 21 0;
#X connect 29 0 26 0;
