#N canvas -1 5 1920 1016 12;
#X obj 556 481 kick;
#X obj 479 254 route start bpm kick snare hhc hho clap;
#X obj 479 303 tempo;
#X obj 479 339 s clock;
#X obj 825 758 dac~;
#X obj 556 505 s~ kickAudio;
#X obj 479 230 netreceive -u 6000;
#X obj 826 708 r~ kickAudio;
#X obj 595 455 snare;
#X obj 595 479 s~ snareAudio;
#X obj 847 671 r~ snareAudio;
#X obj 708 312 hho;
#X obj 708 336 s~ hhoAudio;
#X obj 822 573 r~ hhoAudio;
#X obj 665 373 hhc;
#X obj 665 397 s~ hhcAudio;
#X obj 972 618 r~ hhcAudio;
#X obj 827 294 clap;
#X obj 827 330 s~ clapAudio;
#X obj 1054 482 r~ clapAudio;
#X obj 393 227 loadbang;
#X msg 393 251 \; pd dsp 1;
#X connect 0 0 5 0;
#X connect 1 0 2 0;
#X connect 1 1 2 1;
#X connect 1 2 0 0;
#X connect 1 3 8 0;
#X connect 1 4 14 0;
#X connect 1 5 11 0;
#X connect 1 6 17 0;
#X connect 2 0 3 0;
#X connect 6 0 1 0;
#X connect 7 0 4 0;
#X connect 7 0 4 1;
#X connect 8 0 9 0;
#X connect 10 0 4 0;
#X connect 10 0 4 1;
#X connect 11 0 12 0;
#X connect 13 0 4 0;
#X connect 13 0 4 1;
#X connect 16 0 4 0;
#X connect 16 0 4 1;
#X connect 17 0 18 0;
#X connect 19 0 4 0;
#X connect 19 0 4 1;
#X connect 20 0 21 0;
