#N canvas 38 0 1616 1004 12;
#X obj 354 13 inlet;
#X obj 229 27 r clock;
#X obj 258 231 readsf~;
#X obj 448 164 del 1;
#X msg 449 189 start;
#X obj 258 98 mod 32;
#X obj 297 54 route mod;
#X floatatom 229 51 5 0 0 0 - - - 0;
#X obj 258 122 sel 0;
#X obj 373 55 route play;
#X obj 258 360 outlet~;
#X floatatom 296 75 5 0 0 0 - - - 0;
#X obj 258 287 *~ 0;
#X obj 433 245 route vol;
#X floatatom 433 269 5 0 0 0 - - - 0;
#X obj 103 31 route sample;
#X obj 127 95 loadbang;
#X obj 84 141 bng 15 250 50 0 empty empty empty 17 7 0 10 #fcfcfc #000000
#000000;
#X obj 58 67 symbol;
#X obj 127 196 symbol;
#X msg 127 232 open ./\$1.wav;
#X obj 258 263 lop~ 20000;
#X msg 127 149 samples/snr1;
#X obj 354 244 route lp;
#X connect 0 0 6 0;
#X connect 0 0 9 0;
#X connect 0 0 13 0;
#X connect 0 0 15 0;
#X connect 0 0 23 0;
#X connect 1 0 7 0;
#X connect 2 0 21 0;
#X connect 3 0 4 0;
#X connect 4 0 2 0;
#X connect 5 0 8 0;
#X connect 6 0 11 0;
#X connect 7 0 5 0;
#X connect 8 0 3 0;
#X connect 8 0 17 0;
#X connect 9 0 8 1;
#X connect 11 0 5 1;
#X connect 12 0 10 0;
#X connect 13 0 14 0;
#X connect 14 0 12 1;
#X connect 15 0 18 0;
#X connect 16 0 22 0;
#X connect 17 0 19 0;
#X connect 18 0 19 0;
#X connect 19 0 20 0;
#X connect 20 0 2 0;
#X connect 21 0 12 0;
#X connect 22 0 19 0;
#X connect 23 0 21 1;
