#N canvas -9 1 1916 1002 12;
#X obj 1094 94 inlet;
#N canvas 0 50 450 250 (subpatch) 0;
#X array synthRiff 8 float 3;
#A 0 0 3 4 7 10 3 4 7;
#X coords 0 0 8 12 200 140 1 0 0;
#X restore 1303 137 graph;
#X obj 1211 339 loadbang;
#X obj 1211 198 route riff;
#X msg 1211 291 \; synthRiff 0 \$1 \$2 \$3 \$4 \$5 \$6 \$7 \$8;
#X msg 1211 374 \; synthRiff 0 0 2 3 5 7 9 10 12;
#X obj 1553 452 mod 8;
#X obj 1500 616 mtof;
#X obj 1500 592 + 0;
#X obj 840 82 route sample;
#X obj 1226 526 route pitch;
#N canvas -26 159 1920 1016 sampler 1;
#X obj 664 242 bng 15 250 50 0 empty empty empty 17 7 0 10 #fcfcfc
#000000 #000000;
#X obj 664 262 openpanel;
#N canvas 0 50 450 250 (subpatch) 0;
#X array file 4099 float 4;
#X coords 0 1 4098 -1 200 140 1;
#X restore 888 227 graph;
#X obj 642 404 soundfiler;
#X msg 642 380 read \$1 file;
#X obj 530 182 loadbang;
#X obj 530 283 symbol;
#X msg 530 319 open ./\$1.wav;
#X msg 530 236 samples/Corg;
#X obj 368 305 tabosc4~ file;
#X obj 384 201 inlet;
#X obj 659 160 inlet;
#X obj 368 353 outlet~;
#X obj 368 329 *~ 0.5;
#X connect 0 0 1 0;
#X connect 1 0 4 0;
#X connect 4 0 3 0;
#X connect 5 0 8 0;
#X connect 6 0 7 0;
#X connect 7 0 4 0;
#X connect 8 0 6 0;
#X connect 9 0 13 0;
#X connect 10 0 9 0;
#X connect 11 0 6 0;
#X connect 13 0 12 0;
#X restore 773 201 pd sampler;
#X obj 1500 640 s synthFreq;
#X obj 773 135 r synthFreq;
#X obj 799 506 route vol;
#N canvas 25 174 1920 1016 fm 1;
#X floatatom 635 432 5 0 0 0 - - - 0;
#X floatatom 735 422 5 0 0 0 - - - 0;
#X obj 732 532 *~;
#X text 623 404 freq input;
#X text 781 423 harmonicity;
#X floatatom 847 512 5 0 0 0 - - - 0;
#X text 860 482 modulation index;
#X obj 843 566 *~;
#X obj 735 607 osc~ 40;
#X obj 735 631 *~;
#X obj 658 652 +~;
#X obj 658 676 osc~;
#X obj 658 737 outlet~;
#X obj 635 306 inlet;
#X obj 743 348 loadbang;
#X obj 862 464 inlet;
#X obj 910 402 loadbang;
#X obj 796 224 inlet;
#X msg 910 426 3;
#X msg 750 388 2;
#X obj 659 368 * 32;
#X obj 658 700 *~ 0.1;
#X connect 0 0 2 0;
#X connect 0 0 10 0;
#X connect 1 0 2 1;
#X connect 2 0 7 0;
#X connect 2 0 8 0;
#X connect 5 0 7 1;
#X connect 7 0 9 1;
#X connect 8 0 9 0;
#X connect 9 0 10 1;
#X connect 10 0 11 0;
#X connect 11 0 21 0;
#X connect 13 0 20 0;
#X connect 14 0 19 0;
#X connect 15 0 5 0;
#X connect 16 0 18 0;
#X connect 17 0 1 0;
#X connect 18 0 5 0;
#X connect 19 0 1 0;
#X connect 20 0 0 0;
#X connect 21 0 12 0;
#X restore 583 188 pd fm;
#X obj 583 82 r synthFreq;
#X obj 615 112 route fmindex;
#X obj 599 150 route ratio;
#X obj 772 716 outlet~;
#X text 802 24 sampleLoop;
#X text 598 39 FM Synth;
#N canvas 0 50 450 250 (subpatch) 0;
#X array synthBin1 8 float 3;
#A 0 0 0 0 0 0 0 0 0;
#X coords 0 0 8 1 200 140 1 0 0;
#X restore 113 299 graph;
#N canvas 0 50 450 250 (subpatch) 0;
#X array synthBin2 8 float 3;
#A 0 1 0 0 1 0 1 1 1;
#X coords 0 0 8 1 200 140 1 0 0;
#X restore 113 463 graph;
#X obj 34 574 loadbang;
#X msg 33 735 list \$1 \$2 \$3 \$4 \$5 \$6 \$7 \$8;
#X obj 33 695 route bin1;
#X msg 33 759 \; synthBin1 0 \$1 \$2 \$3 \$4 \$5 \$6 \$7 \$8;
#X msg 34 844 list \$1 \$2 \$3 \$4 \$5 \$6 \$7 \$8;
#X obj 34 804 route bin2;
#N canvas 114 114 450 300 dual 0;
#X obj 131 119 phasor~;
#X obj 194 119 phasor~;
#X obj 123 14 inlet;
#X obj 131 143 *~ 0.3;
#X obj 194 143 *~ 0.3;
#X obj 162 187 +~;
#X obj 162 211 outlet~;
#X obj 267 26 inlet;
#X obj 312 70 / 100;
#X obj 101 50 * 32;
#X obj 192 86 *~ 0.999;
#X connect 0 0 3 0;
#X connect 1 0 4 0;
#X connect 2 0 9 0;
#X connect 3 0 5 0;
#X connect 4 0 5 1;
#X connect 5 0 6 0;
#X connect 7 0 10 1;
#X connect 9 0 0 0;
#X connect 9 0 10 0;
#X connect 10 0 1 0;
#X restore 407 299 pd dual;
#X obj 407 259 r synthFreq;
#X obj 774 602 lop~ 20000;
#X obj 956 440 route lp;
#X obj 453 224 route detune;
#X text 428 181 dual osc;
#X obj 1352 560 route logic;
#X obj 1352 533 r synthInput;
#X obj 1094 118 s synthInput;
#N canvas -12 18 1920 1016 logic 0;
#X obj 253 114 inlet;
#X obj 237 596 &;
#X obj 1078 563 |;
#X obj 523 556 >;
#X obj 798 585 <;
#X obj 237 660 spigot;
#X obj 276 630 tgl 15 0 empty empty empty 17 7 0 10 #fcfcfc #000000
#000000 0 1;
#X obj 523 626 spigot;
#X obj 562 596 tgl 15 0 empty empty empty 17 7 0 10 #fcfcfc #000000
#000000 0 1;
#X obj 798 651 spigot;
#X obj 837 621 tgl 15 0 empty empty empty 17 7 0 10 #fcfcfc #000000
#000000 0 1;
#X obj 1078 633 spigot;
#X obj 1117 603 tgl 15 0 empty empty empty 17 7 0 10 #fcfcfc #000000
#000000 0 1;
#X obj 552 80 route &;
#X obj 430 78 route |;
#X obj 679 77 route >;
#X obj 782 68 route <;
#X obj 552 110 bng 15 250 50 0 empty empty empty 17 7 0 10 #fcfcfc
#000000 #000000;
#X msg 552 130 0;
#X msg 585 131 1;
#X obj 552 177 s &off;
#X obj 287 592 r &on;
#X obj 604 176 s &on;
#X obj 578 625 r &off;
#X obj 852 649 r &off;
#X obj 1131 633 r &off;
#X obj 426 112 bng 15 250 50 0 empty empty empty 17 7 0 10 #fcfcfc
#000000 #000000;
#X msg 426 132 0;
#X msg 459 133 1;
#X obj 426 179 s |off;
#X obj 478 178 s |on;
#X obj 1143 557 r |on;
#X obj 581 656 r |off;
#X obj 296 680 r |off;
#X obj 852 675 r |off;
#X obj 680 112 bng 15 250 50 0 empty empty empty 17 7 0 10 #fcfcfc
#000000 #000000;
#X msg 680 132 0;
#X msg 713 133 1;
#X obj 680 179 s >off;
#X obj 732 178 s >on;
#X obj 304 708 r >off;
#X obj 852 701 r >off;
#X obj 1132 662 r >off;
#X obj 593 567 r >on;
#X obj 802 108 bng 15 250 50 0 empty empty empty 17 7 0 10 #fcfcfc
#000000 #000000;
#X msg 802 128 0;
#X msg 835 129 1;
#X obj 854 174 s <on;
#X obj 802 175 s <off;
#X obj 890 566 r <on;
#X obj 1133 689 r <off;
#X obj 584 686 r <off;
#X obj 305 734 r <off;
#X floatatom 1078 657 5 0 0 0 - - - 0;
#X floatatom 798 675 5 0 0 0 - - - 0;
#X floatatom 523 650 5 0 0 0 - - - 0;
#X floatatom 237 684 5 0 0 0 - - - 0;
#X msg 1211 559 1;
#X obj 1211 535 loadbang;
#X obj 1062 134 inlet;
#X text 1081 104 clock in;
#X floatatom 1086 200 5 0 0 0 - - - 0;
#X obj 875 240 tabread synthBin2;
#X obj 358 305 tabread synthBin1;
#X obj 731 783 f;
#X obj 791 802 + 1;
#X floatatom 731 807 5 0 0 0 - - - 0;
#X obj 237 707 sel 1;
#X obj 523 673 sel 1;
#X obj 798 698 sel 1;
#X obj 1078 680 sel 1;
#X obj 731 830 mod 8;
#X obj 731 854 outlet;
#X obj 1406 128 inlet;
#X obj 1103 855 outlet;
#X obj 1074 818 bng 15 250 50 0 empty empty empty 17 7 0 10 #fcfcfc
#000000 #000000;
#X connect 0 0 13 0;
#X connect 0 0 14 0;
#X connect 0 0 15 0;
#X connect 0 0 16 0;
#X connect 1 0 5 0;
#X connect 2 0 11 0;
#X connect 3 0 7 0;
#X connect 4 0 9 0;
#X connect 5 0 56 0;
#X connect 6 0 5 1;
#X connect 7 0 55 0;
#X connect 8 0 7 1;
#X connect 9 0 54 0;
#X connect 10 0 9 1;
#X connect 11 0 53 0;
#X connect 12 0 11 1;
#X connect 13 0 17 0;
#X connect 14 0 26 0;
#X connect 15 0 35 0;
#X connect 16 0 44 0;
#X connect 17 0 18 0;
#X connect 17 0 19 0;
#X connect 18 0 20 0;
#X connect 19 0 22 0;
#X connect 21 0 6 0;
#X connect 23 0 8 0;
#X connect 24 0 10 0;
#X connect 25 0 12 0;
#X connect 26 0 27 0;
#X connect 26 0 28 0;
#X connect 27 0 29 0;
#X connect 28 0 30 0;
#X connect 31 0 12 0;
#X connect 32 0 8 0;
#X connect 33 0 6 0;
#X connect 34 0 10 0;
#X connect 35 0 36 0;
#X connect 35 0 37 0;
#X connect 36 0 38 0;
#X connect 37 0 39 0;
#X connect 40 0 6 0;
#X connect 41 0 10 0;
#X connect 42 0 12 0;
#X connect 43 0 8 0;
#X connect 44 0 45 0;
#X connect 44 0 46 0;
#X connect 45 0 48 0;
#X connect 46 0 47 0;
#X connect 49 0 10 0;
#X connect 50 0 12 0;
#X connect 51 0 8 0;
#X connect 52 0 6 0;
#X connect 53 0 70 0;
#X connect 54 0 69 0;
#X connect 55 0 68 0;
#X connect 56 0 67 0;
#X connect 57 0 12 0;
#X connect 58 0 57 0;
#X connect 59 0 61 0;
#X connect 59 0 62 0;
#X connect 59 0 63 0;
#X connect 62 0 1 1;
#X connect 62 0 3 1;
#X connect 62 0 4 1;
#X connect 62 0 2 1;
#X connect 63 0 1 0;
#X connect 63 0 3 0;
#X connect 63 0 4 0;
#X connect 63 0 2 0;
#X connect 64 0 65 0;
#X connect 64 0 66 0;
#X connect 65 0 64 1;
#X connect 66 0 71 0;
#X connect 67 0 64 0;
#X connect 67 0 75 0;
#X connect 68 0 64 0;
#X connect 68 0 75 0;
#X connect 69 0 64 0;
#X connect 69 0 75 0;
#X connect 70 0 64 0;
#X connect 70 0 75 0;
#X connect 71 0 72 0;
#X connect 73 0 71 1;
#X connect 75 0 74 0;
#X restore 1500 530 pd logic;
#X obj 1553 367 r clock;
#X obj 1500 554 tabread synthRiff;
#N canvas -109 189 1920 1016 chooser 0;
#X obj 151 16 inlet;
#X obj 100 71 route fm;
#X obj 199 70 route loop;
#X obj 307 73 route dualosc;
#X obj 800 46 inlet~;
#X obj 926 45 inlet~;
#X obj 1085 48 inlet~;
#X text 801 24 fm in;
#X text 917 20 loop in;
#X text 1068 29 dualosc in;
#X obj 100 95 bang;
#X msg 100 120 0;
#X msg 134 120 1;
#X obj 199 99 bang;
#X msg 199 124 0;
#X msg 233 124 1;
#X obj 307 99 bang;
#X msg 307 124 0;
#X msg 341 124 1;
#X obj 134 219 s fmon;
#X obj 100 191 s fmoff;
#X obj 199 183 s loopoff;
#X obj 233 212 s loopon;
#X obj 307 181 s dualoff;
#X obj 341 212 s dualon;
#X obj 800 70 *~ 1;
#X obj 826 130 r fmon;
#X obj 826 156 r loopoff;
#X obj 826 183 r dualoff;
#X obj 955 164 r dualoff;
#X obj 955 111 r loopon;
#X obj 955 137 r fmoff;
#X obj 1119 115 r dualon;
#X obj 1119 141 r fmoff;
#X obj 1119 168 r loopoff;
#X obj 972 285 outlet~;
#X obj 926 69 *~ 0;
#X obj 1085 72 *~ 0;
#X connect 0 0 1 0;
#X connect 0 0 2 0;
#X connect 0 0 3 0;
#X connect 1 0 10 0;
#X connect 2 0 13 0;
#X connect 3 0 16 0;
#X connect 4 0 25 0;
#X connect 5 0 36 0;
#X connect 6 0 37 0;
#X connect 10 0 11 0;
#X connect 10 0 12 0;
#X connect 11 0 20 0;
#X connect 12 0 19 0;
#X connect 13 0 14 0;
#X connect 13 0 15 0;
#X connect 14 0 21 0;
#X connect 15 0 22 0;
#X connect 16 0 17 0;
#X connect 16 0 18 0;
#X connect 17 0 23 0;
#X connect 18 0 24 0;
#X connect 25 0 35 0;
#X connect 26 0 25 1;
#X connect 27 0 25 1;
#X connect 28 0 25 1;
#X connect 29 0 36 1;
#X connect 30 0 36 1;
#X connect 31 0 36 1;
#X connect 32 0 37 1;
#X connect 33 0 37 1;
#X connect 34 0 37 1;
#X connect 36 0 35 0;
#X connect 37 0 35 0;
#X restore 775 401 pd chooser;
#X obj 775 365 route type;
#X msg 34 868 \; synthBin2 0 \$1 \$2 \$3 \$4 \$5 \$6 \$7 \$8;
#X floatatom 799 530 5 0 0 0 - - - 0;
#X obj 774 578 *~ 0;
#X floatatom 1573 502 5 0 0 0 - - - 0;
#X floatatom 1581 578 5 0 0 0 - - - 0;
#X obj 1662 113 route riffmod;
#X msg 34 609 \; synthBin1 0 1 0 1 0 0 1 0 0;
#X msg 33 650 \; synthBin2 1 0 1 0 0 1 0 0 1;
#N canvas 0 50 450 250 (subpatch) 0;
#X array synthAR 2 float 3;
#A 0 5 400;
#X coords 0 0 2 500 200 140 1 0 0;
#X restore 1465 741 graph;
#X obj 1367 738 route attack;
#X obj 1366 815 route decay;
#X msg 1466 920 \; bassAR 0 5;
#X obj 1466 892 loadbang;
#X obj 1568 891 loadbang;
#X msg 1367 769 \; synthAR 0 \$1;
#X msg 1366 846 \; synthAR 1 \$1;
#X floatatom 935 803 5 0 0 0 - - - 0;
#X msg 935 741 0;
#X floatatom 1065 803 5 0 0 0 - - - 0;
#X msg 1065 741 1;
#X msg 935 851 1 \$1;
#X msg 1014 851 0 \$1;
#X obj 935 779 tabread synthAR;
#X obj 1065 779 tabread synthAR;
#X obj 976 913 line;
#X obj 976 937 pow 1;
#X obj 774 626 *~;
#X obj 1065 692 del;
#X msg 1568 919 \; bassAR 1 400;
#X obj 1054 350 route pow;
#X obj 774 650 *~ 0.5;
#X connect 0 0 3 0;
#X connect 0 0 9 0;
#X connect 0 0 10 0;
#X connect 0 0 14 0;
#X connect 0 0 17 0;
#X connect 0 0 18 0;
#X connect 0 0 26 0;
#X connect 0 0 29 0;
#X connect 0 0 33 0;
#X connect 0 0 34 0;
#X connect 0 0 38 0;
#X connect 0 0 43 0;
#X connect 0 0 49 0;
#X connect 0 0 53 0;
#X connect 0 0 54 0;
#X connect 0 0 73 0;
#X connect 2 0 5 0;
#X connect 3 0 4 0;
#X connect 6 0 39 1;
#X connect 6 0 47 0;
#X connect 7 0 12 0;
#X connect 8 0 7 0;
#X connect 9 0 11 1;
#X connect 10 0 8 1;
#X connect 11 0 42 2;
#X connect 13 0 11 0;
#X connect 14 0 45 0;
#X connect 15 0 42 1;
#X connect 16 0 15 0;
#X connect 17 0 15 2;
#X connect 18 0 15 1;
#X connect 24 0 50 0;
#X connect 24 0 51 0;
#X connect 25 0 27 0;
#X connect 26 0 25 0;
#X connect 28 0 44 0;
#X connect 29 0 28 0;
#X connect 30 0 42 3;
#X connect 31 0 30 0;
#X connect 32 0 70 0;
#X connect 33 0 32 1;
#X connect 34 0 30 1;
#X connect 36 0 39 0;
#X connect 37 0 36 0;
#X connect 39 0 41 0;
#X connect 39 1 61 0;
#X connect 39 1 71 0;
#X connect 40 0 6 0;
#X connect 41 0 8 0;
#X connect 41 0 48 0;
#X connect 42 0 46 0;
#X connect 43 0 42 0;
#X connect 45 0 46 1;
#X connect 46 0 32 0;
#X connect 49 0 39 2;
#X connect 53 0 58 0;
#X connect 54 0 59 0;
#X connect 56 0 55 0;
#X connect 57 0 72 0;
#X connect 60 0 64 0;
#X connect 60 0 71 1;
#X connect 61 0 66 0;
#X connect 62 0 65 0;
#X connect 63 0 67 0;
#X connect 64 0 68 0;
#X connect 65 0 68 0;
#X connect 66 0 60 0;
#X connect 67 0 62 0;
#X connect 68 0 69 0;
#X connect 69 0 70 1;
#X connect 70 0 74 0;
#X connect 71 0 63 0;
#X connect 73 0 69 1;
#X connect 74 0 19 0;
