#N canvas -145 72 1920 1016 12;
#X obj 943 258 f;
#X obj 980 259 + 1;
#X obj 943 286 mod 1;
#X obj 943 310 sel 0;
#X obj 943 334 f;
#X obj 981 334 + 1;
#N canvas 0 50 450 250 (subpatch) 0;
#X array synthRiff 8 float 3;
#A 0 0 2 3 5 7 9 10 12;
#X coords 0 0 8 12 200 140 1 0 0;
#X restore 1303 137 graph;
#N canvas 76 76 1190 590 (subpatch) 0;
#X array synthPattern 16 float 3;
#A 0 0 0 0 0 0 0 0 0 0 0 0 0 0 0 0 0;
#X coords 0 1 16 -1 200 140 1 0 0;
#X restore 1516 136 graph;
#X obj 783 128 inlet;
#X obj 783 207 route space;
#X obj 943 358 mod 8;
#X obj 1211 339 loadbang;
#X obj 306 35 route pattern;
#X obj 782 276 route riffmod;
#X obj 1211 198 route riff;
#X obj 89 191 baseconverter;
#X msg 177 150 0 1;
#X obj 99 223 list length;
#X floatatom 99 263 5 0 0 0 - - - 0;
#X msg 46 257 8;
#X obj 46 281 -;
#X floatatom 106 165 5 0 0 0 - - - 0;
#X listbox 89 512 20 0 0 0 - - - 0;
#X obj 89 535 list prepend;
#X floatatom 46 305 5 0 0 0 - - - 0;
#X msg 46 346 0 \$1;
#X listbox 46 442 20 0 0 0 - - - 0;
#X obj 1517 293 loadbang;
#X obj 177 117 loadbang;
#X obj 376 188 baseconverter;
#X msg 464 147 0 1;
#X obj 386 220 list length;
#X floatatom 386 260 5 0 0 0 - - - 0;
#X msg 333 254 8;
#X obj 333 278 -;
#X floatatom 393 162 5 0 0 0 - - - 0;
#X listbox 376 509 20 0 0 0 - - - 0;
#X obj 376 532 list prepend;
#X floatatom 333 302 5 0 0 0 - - - 0;
#X msg 333 343 0 \$1;
#X listbox 333 439 20 0 0 0 - - - 0;
#X msg 483 280 const \$1;
#X floatatom 483 227 5 0 0 0 - - - 0;
#X obj 483 188 loadbang;
#X obj 464 122 loadbang;
#X obj 306 59 unpack;
#X obj 943 478 mtof;
#X obj 941 561 *~;
#X obj 717 411 route vol;
#X obj 1034 502 loadbang;
#X msg 1034 526 0;
#X obj 1047 762 outlet~;
#X floatatom 1076 272 5 0 0 0 - - - 0;
#X floatatom 1050 222 5 0 0 0 - - - 0;
#X obj 943 231 r clock;
#X msg 1084 538 1;
#X floatatom 943 457 5 0 0 0 - - - 0;
#N canvas 0 50 450 250 (subpatch) 0;
#X array synthAR 2 float 3;
#A 0 5 200;
#X coords 0 0 2 500 200 140 1 0 0;
#X restore 1465 741 graph;
#X obj 1367 738 route attack;
#X obj 1366 815 route decay;
#X obj 1466 892 loadbang;
#X obj 1568 891 loadbang;
#X obj 801 637 mod 16;
#X floatatom 801 688 5 0 0 0 - - - 0;
#X obj 801 711 sel 1;
#X obj 842 938 vline~;
#X obj 931 720 del;
#X floatatom 833 828 5 0 0 0 - - - 0;
#X msg 833 766 0;
#X floatatom 945 829 5 0 0 0 - - - 0;
#X msg 945 767 1;
#X msg 827 905 1 \$1;
#X msg 880 903 0 \$1;
#X obj 842 962 pow~ 1;
#X obj 942 611 *~;
#X obj 713 562 route patternmod;
#X obj 827 383 route pitch;
#X obj 943 430 + 0;
#X obj 942 587 lop~ 20000;
#X obj 1037 582 route lp;
#X obj 701 688 route pow;
#X floatatom 717 435 5 0 0 0 - - - 0;
#X msg 488 429 const \$1;
#X floatatom 488 376 5 0 0 0 - - - 0;
#X obj 488 337 loadbang;
#X msg 89 574 \; synthPattern 0 \$1 \$2 \$3 \$4 \$5 \$6 \$7 \$8;
#X msg 376 571 \; synthPattern 8 \$1 \$2 \$3 \$4 \$5 \$6 \$7 \$8;
#X obj 483 304 array define zeroes_BS 10000;
#X obj 488 453 array define zeroes_AS 10000;
#X obj 46 370 array get zeroes_AS;
#X obj 333 367 array get zeroes_BS;
#X msg 1517 316 \; synthPattern 0 0 0 0 0 0 0 0 0 0 0 0 0 0 0 0 0;
#X msg 1211 291 \; synthRiff 0 \$1 \$2 \$3 \$4 \$5 \$6 \$7 \$8;
#X msg 1211 374 \; synthRiff 0 0 2 3 5 7 9 10 12;
#X msg 1367 769 \; synthAR 0 \$1;
#X msg 1366 846 \; synthAR 1 \$1;
#X msg 1466 920 \; synthAR 0 5;
#X msg 1568 919 \; synthAR 1 200;
#X obj 945 805 tabread synthAR;
#X obj 833 804 tabread synthAR;
#X obj 801 664 tabread synthPattern;
#X obj 943 382 tabread synthRiff;
#N canvas -324 195 1920 1016 synths 0;
#X obj 840 82 route sample;
#N canvas -26 159 1920 1016 sampler 0;
#X obj 664 242 bng 15 250 50 0 empty empty empty 17 7 0 10 #fcfcfc
#000000 #000000;
#X obj 664 262 openpanel;
#N canvas 0 50 450 250 (subpatch) 0;
#X array file 4099 float 4;
#X coords 0 1 4098 -1 200 140 1;
#X restore 888 227 graph;
#X obj 642 404 soundfiler;
#X msg 642 380 read \$1 file;
#X obj 530 182 loadbang;
#X obj 530 283 symbol;
#X msg 530 319 open ./\$1.wav;
#X msg 530 236 samples/Corg;
#X obj 368 305 tabosc4~ file;
#X obj 384 201 inlet;
#X obj 659 160 inlet;
#X obj 368 353 outlet~;
#X obj 368 329 *~ 0.5;
#X obj 384 225 / 4;
#X connect 0 0 1 0;
#X connect 1 0 4 0;
#X connect 4 0 3 0;
#X connect 5 0 8 0;
#X connect 6 0 7 0;
#X connect 7 0 4 0;
#X connect 8 0 6 0;
#X connect 9 0 13 0;
#X connect 10 0 14 0;
#X connect 11 0 6 0;
#X connect 13 0 12 0;
#X connect 14 0 9 0;
#X restore 773 201 pd sampler;
#X obj 773 135 r synthFreq;
#N canvas 25 174 1920 1016 fm 0;
#X floatatom 635 432 5 0 0 0 - - - 0;
#X floatatom 735 422 5 0 0 0 - - - 0;
#X obj 732 532 *~;
#X text 623 404 freq input;
#X text 781 423 harmonicity;
#X floatatom 847 512 5 0 0 0 - - - 0;
#X text 860 482 modulation index;
#X obj 843 566 *~;
#X obj 735 607 osc~ 40;
#X obj 735 631 *~;
#X obj 658 652 +~;
#X obj 658 676 osc~;
#X obj 658 737 outlet~;
#X obj 635 306 inlet;
#X obj 743 348 loadbang;
#X obj 862 464 inlet;
#X obj 910 402 loadbang;
#X obj 796 224 inlet;
#X msg 910 426 3;
#X msg 750 388 2;
#X obj 658 700 *~ 0.1;
#X obj 659 368 * 8;
#X connect 0 0 2 0;
#X connect 0 0 10 0;
#X connect 1 0 2 1;
#X connect 2 0 7 0;
#X connect 2 0 8 0;
#X connect 5 0 7 1;
#X connect 7 0 9 1;
#X connect 8 0 9 0;
#X connect 9 0 10 1;
#X connect 10 0 11 0;
#X connect 11 0 20 0;
#X connect 13 0 21 0;
#X connect 14 0 19 0;
#X connect 15 0 5 0;
#X connect 16 0 18 0;
#X connect 17 0 1 0;
#X connect 18 0 5 0;
#X connect 19 0 1 0;
#X connect 20 0 12 0;
#X connect 21 0 0 0;
#X restore 583 188 pd fm;
#X obj 583 82 r synthFreq;
#X obj 615 112 route fmindex;
#X text 802 24 sampleLoop;
#X text 598 39 FM Synth;
#N canvas 114 114 450 300 dual 0;
#X obj 131 119 phasor~;
#X obj 194 119 phasor~;
#X obj 123 14 inlet;
#X obj 162 187 +~;
#X obj 162 211 outlet~;
#X obj 267 26 inlet;
#X obj 312 70 / 100;
#X obj 192 86 *~ 0.999;
#X obj 101 50 * 8;
#X obj 131 143 *~ 0.1;
#X obj 194 143 *~ 0.1;
#X connect 0 0 9 0;
#X connect 1 0 10 0;
#X connect 2 0 8 0;
#X connect 3 0 4 0;
#X connect 5 0 7 1;
#X connect 7 0 1 0;
#X connect 8 0 0 0;
#X connect 8 0 7 0;
#X connect 9 0 3 0;
#X connect 10 0 3 1;
#X restore 407 299 pd dual;
#X obj 407 259 r synthFreq;
#X obj 453 224 route detune;
#X text 428 181 dual osc;
#N canvas -109 189 1920 1016 chooser 0;
#X obj 151 16 inlet;
#X obj 100 71 route fm;
#X obj 199 70 route loop;
#X obj 307 73 route dualosc;
#X obj 800 46 inlet~;
#X obj 926 45 inlet~;
#X obj 1085 48 inlet~;
#X text 801 24 fm in;
#X text 917 20 loop in;
#X text 1068 29 dualosc in;
#X obj 100 95 bang;
#X msg 100 120 0;
#X msg 134 120 1;
#X obj 199 99 bang;
#X msg 199 124 0;
#X msg 233 124 1;
#X obj 307 99 bang;
#X msg 307 124 0;
#X msg 341 124 1;
#X obj 134 219 s fmon;
#X obj 100 191 s fmoff;
#X obj 199 183 s loopoff;
#X obj 233 212 s loopon;
#X obj 307 181 s dualoff;
#X obj 341 212 s dualon;
#X obj 800 70 *~ 1;
#X obj 826 130 r fmon;
#X obj 826 156 r loopoff;
#X obj 826 183 r dualoff;
#X obj 955 164 r dualoff;
#X obj 955 111 r loopon;
#X obj 955 137 r fmoff;
#X obj 1119 115 r dualon;
#X obj 1119 141 r fmoff;
#X obj 1119 168 r loopoff;
#X obj 972 285 outlet~;
#X obj 926 69 *~ 0;
#X obj 1085 72 *~ 0;
#X connect 0 0 1 0;
#X connect 0 0 2 0;
#X connect 0 0 3 0;
#X connect 1 0 10 0;
#X connect 2 0 13 0;
#X connect 3 0 16 0;
#X connect 4 0 25 0;
#X connect 5 0 36 0;
#X connect 6 0 37 0;
#X connect 10 0 11 0;
#X connect 10 0 12 0;
#X connect 11 0 20 0;
#X connect 12 0 19 0;
#X connect 13 0 14 0;
#X connect 13 0 15 0;
#X connect 14 0 21 0;
#X connect 15 0 22 0;
#X connect 16 0 17 0;
#X connect 16 0 18 0;
#X connect 17 0 23 0;
#X connect 18 0 24 0;
#X connect 25 0 35 0;
#X connect 26 0 25 1;
#X connect 27 0 25 1;
#X connect 28 0 25 1;
#X connect 29 0 36 1;
#X connect 30 0 36 1;
#X connect 31 0 36 1;
#X connect 32 0 37 1;
#X connect 33 0 37 1;
#X connect 34 0 37 1;
#X connect 36 0 35 0;
#X connect 37 0 35 0;
#X restore 775 401 pd chooser;
#X obj 775 365 route type;
#X obj 775 425 outlet~;
#X obj 979 39 inlet;
#X obj 599 150 route fmratio;
#X connect 0 0 1 1;
#X connect 1 0 12 2;
#X connect 2 0 1 0;
#X connect 3 0 12 1;
#X connect 4 0 3 0;
#X connect 5 0 3 2;
#X connect 8 0 12 3;
#X connect 9 0 8 0;
#X connect 10 0 8 1;
#X connect 12 0 14 0;
#X connect 13 0 12 0;
#X connect 15 0 0 0;
#X connect 15 0 5 0;
#X connect 15 0 10 0;
#X connect 15 0 13 0;
#X connect 15 0 16 0;
#X connect 16 0 3 1;
#X restore 1412 504 pd synths;
#X obj 943 502 s synthFreq;
#X obj 943 406 + 36;
#X obj 943 639 *~;
#X obj 1088 635 r kickon;
#X obj 1071 719 vline~;
#X msg 1088 683 1 140;
#X obj 1088 659 del 10;
#X msg 1028 671 0.2 10;
#X connect 0 0 1 0;
#X connect 0 0 2 0;
#X connect 0 0 53 0;
#X connect 0 0 62 0;
#X connect 1 0 0 1;
#X connect 2 0 3 0;
#X connect 3 0 4 0;
#X connect 4 0 5 0;
#X connect 4 0 10 0;
#X connect 5 0 4 1;
#X connect 8 0 9 0;
#X connect 8 0 12 0;
#X connect 8 0 13 0;
#X connect 8 0 14 0;
#X connect 8 0 48 0;
#X connect 8 0 58 0;
#X connect 8 0 59 0;
#X connect 8 0 75 0;
#X connect 8 0 76 0;
#X connect 8 0 79 0;
#X connect 8 0 80 0;
#X connect 8 0 102 0;
#X connect 9 0 2 1;
#X connect 10 0 52 0;
#X connect 10 0 101 0;
#X connect 11 0 93 0;
#X connect 12 0 45 0;
#X connect 13 0 10 1;
#X connect 14 0 92 0;
#X connect 15 0 17 0;
#X connect 15 0 19 0;
#X connect 15 0 22 0;
#X connect 16 0 15 1;
#X connect 17 0 18 0;
#X connect 18 0 20 1;
#X connect 19 0 20 0;
#X connect 20 0 24 0;
#X connect 21 0 15 0;
#X connect 22 0 23 0;
#X connect 23 0 85 0;
#X connect 24 0 25 0;
#X connect 25 0 89 0;
#X connect 26 0 23 1;
#X connect 27 0 91 0;
#X connect 28 0 16 0;
#X connect 29 0 31 0;
#X connect 29 0 33 0;
#X connect 29 0 36 0;
#X connect 30 0 29 1;
#X connect 31 0 32 0;
#X connect 32 0 34 1;
#X connect 33 0 34 0;
#X connect 34 0 38 0;
#X connect 35 0 29 0;
#X connect 36 0 37 0;
#X connect 37 0 86 0;
#X connect 38 0 39 0;
#X connect 39 0 90 0;
#X connect 40 0 37 1;
#X connect 41 0 87 0;
#X connect 42 0 41 0;
#X connect 43 0 42 0;
#X connect 44 0 30 0;
#X connect 45 0 21 0;
#X connect 45 1 35 0;
#X connect 46 0 103 0;
#X connect 47 0 78 0;
#X connect 48 0 47 1;
#X connect 48 0 81 0;
#X connect 49 0 50 0;
#X connect 50 0 47 1;
#X connect 54 0 0 0;
#X connect 55 0 47 1;
#X connect 56 0 46 0;
#X connect 58 0 94 0;
#X connect 59 0 95 0;
#X connect 60 0 96 0;
#X connect 61 0 97 0;
#X connect 62 0 100 0;
#X connect 63 0 64 0;
#X connect 64 0 66 0;
#X connect 64 0 68 0;
#X connect 65 0 73 0;
#X connect 66 0 70 0;
#X connect 67 0 71 0;
#X connect 67 0 66 1;
#X connect 68 0 99 0;
#X connect 69 0 72 0;
#X connect 70 0 98 0;
#X connect 71 0 65 0;
#X connect 72 0 65 0;
#X connect 73 0 74 1;
#X connect 74 0 105 0;
#X connect 75 0 62 1;
#X connect 76 0 77 1;
#X connect 77 0 56 0;
#X connect 78 0 74 0;
#X connect 79 0 78 1;
#X connect 80 0 73 1;
#X connect 82 0 88 0;
#X connect 83 0 82 0;
#X connect 84 0 83 0;
#X connect 89 0 26 0;
#X connect 90 0 40 0;
#X connect 98 0 69 0;
#X connect 99 0 67 0;
#X connect 100 0 63 0;
#X connect 101 0 104 0;
#X connect 102 0 47 0;
#X connect 104 0 77 0;
#X connect 105 0 51 0;
#X connect 106 0 110 0;
#X connect 106 0 109 0;
#X connect 107 0 105 1;
#X connect 108 0 107 0;
#X connect 109 0 108 0;
#X connect 110 0 107 0;
