#N canvas 905 235 450 300 12;
#X obj 171 37 inlet;
#X obj 111 168 metro 125;
#X obj 111 37 inlet;
#X obj 111 192 f;
#X obj 143 192 + 1;
#X obj 111 262 outlet;
#X floatatom 111 216 5 0 0 0 - - - 0;
#X obj 171 103 /;
#X msg 171 69 60000;
#X obj 171 127 / 4;
#X connect 0 0 7 1;
#X connect 0 0 8 0;
#X connect 1 0 3 0;
#X connect 2 0 1 0;
#X connect 3 0 4 0;
#X connect 3 0 5 0;
#X connect 3 0 6 0;
#X connect 4 0 3 1;
#X connect 7 0 9 0;
#X connect 8 0 7 0;
#X connect 9 0 1 1;
